<svg height="464pt" viewBox="-8 0 464 464" width="464pt" xmlns="http://www.w3.org/2000/svg"><path d="m224 48.40625c-44.785156 4.058594-80 41.769531-80 87.59375v24c0 4.414062 3.585938 8 8 8h72.03125c0-.296875-.03125-.601562-.03125-.894531v-15.105469h-48c-8.824219 0-16-7.175781-16-16v-32c0-8.824219 7.175781-16 16-16h48zm0 0"/><path d="m66.847656 48h-50.847656v21.929688c0 32.855468 4.175781 65.519531 12.414062 97.292968 6.226563-41.488281 19.195313-81.847656 38.433594-119.222656zm0 0"/><path d="m208 104h16v32h-16zm0 0"/><path d="m176 104h16v32h-16zm0 0"/><path d="m234.128906 432h53.871094v-1.511719c0-19.390625 3.289062-38.511719 9.3125-56.703125l-30.824219-13.695312c-25.929687-11.53125-48.640625-29.625-65.664062-52.328125-15.953125-21.265625-26.695313-46.386719-31.070313-72.625l-8.53125-51.136719h-9.222656c-13.230469 0-24-10.769531-24-24v-24c0-37.0625 19.558594-69.574219 48.832031-88h-29.519531l-27.3125 27.3125-27.3125-27.3125h-7.917969c-29.28125 53.855469-44.769531 114.695312-44.769531 176h-.34375c.160156 3.144531.34375 6.296875.34375 9.457031 0 19.4375-3.230469 38.542969-9.328125 56.933594l54.144531 27.082031c3.320313 1.65625 7.03125 2.527344 10.734375 2.527344h48.449219c22.054688 0 40 17.945312 40 40v43.359375zm0 0"/><path d="m8 400h160v-40c0-13.230469-10.769531-24-24-24h-48.449219c-6.167969 0-12.359375-1.464844-17.878906-4.214844l-52.296875-26.152344-7.414062 20.390626c-6.609376 18.160156-9.960938 37.183593-9.960938 56.519531zm120-48h16v32h-16zm-32 0h16v32h-16zm-32 0h16v32h-16zm-32 0h16v32h-16zm0 0"/><path d="m272.984375 345.464844 30.023437 13.34375c5.59375-12.921875 12.703126-25.175782 21.214844-36.535156-9.480468-4.257813-18.496094-9.378907-26.976562-15.257813l-29.804688 35.769531c1.839844.902344 3.664063 1.839844 5.542969 2.679688zm0 0"/><path d="m229.023438 208c-1.953126-7.886719-3.289063-15.910156-4.101563-24h-47.480469l4 24zm0 0"/><path d="m253.257812 334.785156 31.246094-37.503906c-5.144531-4.335938-10.015625-9-14.632812-13.945312l-42.671875 30.480468c7.878906 7.945313 16.632812 14.960938 26.058593 20.96875zm0 0"/><path d="m120 52.6875 20.6875-20.6875h99.328125l-.015625-32h-240v32h99.3125zm0 0"/><path d="m229.871094 448-56-32h-165.871094v24c0 13.230469 10.769531 24 24 24h88v-32h42.128906l50.472656 28.832031c3.605469 2.070313 7.726563 3.167969 11.894532 3.167969h103.703125c-3.535157-4.671875-6.183594-10.054688-7.390625-16zm0 0"/><path d="m336 440c0 13.230469 10.769531 24 24 24h64c13.230469 0 24-10.769531 24-24v-24h-88c-13.230469 0-24 10.769531-24 24zm32 8h-16v-16h16zm0 0"/><path d="m213.617188 298.167969c.933593 1.238281 1.941406 2.417969 2.910156 3.632812l42.945312-30.671875c-3.351562-4.351562-6.488281-8.898437-9.433594-13.601562l-53.296874 11.847656c4.554687 10.167969 10.1875 19.863281 16.875 28.792969zm0 0"/><path d="m184.113281 224 1.414063 8.503906c1.234375 7.382813 3.082031 14.648438 5.394531 21.753906l50.980469-11.328124c-3.054688-6.152344-5.734375-12.472657-8.023438-18.9375h-49.765625zm0 0"/><path d="m428.488281 346.902344-66.128906-12.589844c-7.742187-1.480469-15.289063-3.527344-22.640625-6-23 29.007812-35.71875 65.085938-35.71875 102.175781v1.511719h16.808594c3.71875-18.230469 19.871094-32 39.191406-32h88v-29.519531c0-11.511719-8.199219-21.417969-19.511719-23.578125zm0 0"/></svg>