<?xml version="1.0" encoding="iso-8859-1"?>
<!-- Generator: Adobe Illustrator 19.0.0, SVG Export Plug-In . SVG Version: 6.00 Build 0)  -->
<svg version="1.1" id="Capa_1" xmlns="http://www.w3.org/2000/svg" xmlns:xlink="http://www.w3.org/1999/xlink" x="0px" y="0px"
	 viewBox="0 0 512.001 512.001" style="enable-background:new 0 0 512.001 512.001;" xml:space="preserve">
<g>
	<g>
		<path d="M74.652,310.629c-5.564,8.126-11.522,15.651-17.329,21.461l-12.422,12.422c-5.859,5.859-5.859,15.352,0,21.211
			l127.266,127.698c2.813,2.813,6.621,4.395,10.605,4.395h37.28c12.263,0,24.694-2.134,37.141-4.657L74.652,310.629z"/>
	</g>
</g>
<g>
	<g>
		<path d="M491.605,174.283L363.607,47.002c-5.859-5.859-15.352-5.859-21.211,0l-12.422,12.422
			c-5.808,5.814-13.332,11.776-21.458,17.344l182.532,182.52c2.52-12.441,4.952-24.864,4.952-37.12v-37.28
			C496,180.904,494.418,177.095,491.605,174.283z"/>
	</g>
</g>
<g>
	<g>
		<path d="M281.552,92.226c-10.547,4.785-20.61,7.804-28.394,7.804c-31.362,0-60.85,12.217-83.042,34.395l-37.793,37.808
			c-21.855,21.855-34.395,52.119-34.395,83.027c0,7.778-3.029,17.847-7.82,28.403l200.277,200.264
			c82.982-30.385,161.058-108.464,191.433-191.448L281.552,92.226z M242.553,189.283l-55.386,55.371
			c-5.859,5.859-15.352,5.859-21.211,0c-5.859-5.859-5.859-15.352,0-21.211l55.386-55.371c5.859-5.859,15.352-5.859,21.211,0
			C248.412,173.931,248.412,183.423,242.553,189.283z"/>
	</g>
</g>
<g>
	<g>
		<path d="M501.139,29.658c-12.173-18.457-32.637-29.472-54.742-29.472c-23.516,0-44.405,12.554-55.979,31.205l22.434,22.434
			c4.948-13.7,18.159-23.639,33.545-23.639c12.173,0,22.998,5.83,29.707,15.981c6.694,10.166,7.793,22.427,3.003,33.618
			l-12.365,27.929l22.841,22.841l17.093-38.963C515.392,71.26,513.312,48.115,501.139,29.658z"/>
	</g>
</g>
<g>
	<g>
		<path d="M105.594,468.845L79.6,478.916h-0.015c-11.206,4.775-23.438,3.691-33.589-2.988C35.83,469.218,30,458.393,30,446.22
			c0-15.381,8.013-26.307,21.711-31.262l-22.434-22.437C10.624,404.095,0,422.695,0,446.22c0,22.119,11.016,42.583,29.487,54.741
			c18.378,12.127,41.543,14.275,61.919,5.522l37.03-14.792L105.594,468.845z"/>
	</g>
</g>
<g>
</g>
<g>
</g>
<g>
</g>
<g>
</g>
<g>
</g>
<g>
</g>
<g>
</g>
<g>
</g>
<g>
</g>
<g>
</g>
<g>
</g>
<g>
</g>
<g>
</g>
<g>
</g>
<g>
</g>
</svg>
