<svg height="512pt" viewBox="0 0 512 512.00008" width="512pt" xmlns="http://www.w3.org/2000/svg"><path d="m448.976562 369.496094-22.5-38.96875-233.828124 135 22.5 38.96875c4.144531 7.175781 13.316406 9.632812 20.492187 5.492187l207.84375-120c7.175781-4.140625 9.632813-13.316406 5.492187-20.492187zm0 0"/><path d="m478.246094 80c-18.640625 0-33.75 15.109375-33.75 33.75v-60c0-18.640625-15.109375-33.75-33.75-33.75s-33.75 15.109375-33.75 33.75v-20c0-18.640625-15.109375-33.75-33.75-33.75s-33.75 15.109375-33.75 33.75v20c0-18.640625-15.109375-33.75-33.75-33.75-.65625 0-1.3125.023438-1.960938.0625 8.335938 5.398438 15.4375 12.734375 20.546875 21.582031l180.625 312.851563c8.417969 14.582031 7.710938 31.960937-.316406 45.503906h37.355469v-286.25c0-18.640625-15.109375-33.75-33.75-33.75zm0 0"/><path d="m330.261719 490h166.734375c8.285156 0 15-6.714844 15-15v-45h-77.8125zm0 0"/><path d="m268.351562 56.644531c-9.320312-16.140625-29.960937-21.671875-46.101562-12.351562-16.144531 9.320312-21.675781 29.960937-12.355469 46.101562l-30-51.960937c-9.320312-16.140625-29.960937-21.671875-46.101562-12.351563-16.140625 9.320313-21.671875 29.960938-12.355469 46.101563l-10-17.320313c-9.316406-16.140625-29.960938-21.671875-46.101562-12.351562-16.140626 9.320312-21.671876 29.960937-12.351563 46.101562l10 17.320313c-9.320313-16.140625-29.960937-21.671875-46.105469-12.351563-16.140625 9.320313-21.671875 29.960938-12.351562 46.101563l97.929687 169.621094-31.839843-8.792969c-11.621094-3.207031-23.78125-1.675781-34.242188 4.3125-.050781.027343-.101562.058593-.152344.085937-10.382812 5.996094-17.804687 15.667969-20.910156 27.253906-6.402344 23.90625 7.835938 48.570313 31.742188 54.972657l118.707031 31.808593 11.890625 20.601563 233.824218-135zm0 0"/></svg>