<svg height="479pt" viewBox="-31 1 479 479.99858" width="479pt" xmlns="http://www.w3.org/2000/svg"><path d="m83.835938 129.839844 14.070312 7.613281c2.554688-4.710937 5.414062-9.253906 8.554688-13.597656l-12.96875-9.359375c-3.550782 4.898437-6.777344 10.023437-9.65625 15.34375zm0 0"/><path d="m67.46875 183.199219 15.910156 1.648437c1.269532-12.519531 4.390625-24.777344 9.265625-36.378906l-14.753906-6.207031c-5.480469 13.054687-8.992187 26.851562-10.421875 40.9375zm0 0"/><path d="m32.5 328v8c.082031 70.65625 57.339844 127.914062 128 128h.207031c7.492188 10.035156 19.269531 15.960938 31.792969 16h32c12.523438-.039062 24.300781-5.964844 31.792969-16h.207031c70.65625-.085938 127.914062-57.34375 128-128v-64c17.671875 0 32-14.328125 32-32 0-17.675781-14.328125-32-32-32h-.664062l-2.167969-25.265625c-3.761719-43.332031-23.664063-83.671875-55.761719-113.023437-9-8.25-18.859375-15.511719-29.40625-21.65625v-.054688h-.097656c-1.335938-.800781-2.648438-1.601562-4-2.34375-14.367188-7.980469-29.816406-13.835938-45.863282-17.386719-5.054687-16.78125-20.511718-28.269531-38.039062-28.269531s-32.984375 11.488281-38.039062 28.269531c-16.027344 3.542969-31.460938 9.378907-45.816407 17.328125-1.359375.753906-2.664062 1.601563-4 2.402344h-.144531v.078125c-48.5625 28.410156-80.316406 78.621094-85.167969 134.671875l-2.167969 25.25h-.664062c-17.671875 0-32 14.324219-32 32 0 17.671875 14.328125 32 32 32zm304-56v64c-.050781 44.160156-35.839844 79.949219-80 80h-96c-44.164062-.050781-79.953125-35.839844-80-80v-64zm32 48h-16v-16h16zm-304 0h-16v-16h16zm-16 16h16c.070312 49.875 38.300781 91.398438 88 95.589844v8.410156c.019531 2.5625.289062 5.117188.800781 7.628906-58.875-3.816406-104.707031-52.632812-104.800781-111.628906zm200 104c0 13.253906-10.746094 24-24 24h-32c-13.253906 0-24-10.746094-24-24v-8h80zm15.199219 7.628906c.511719-2.511718.777343-5.066406.800781-7.628906v-8.410156c49.699219-4.191406 87.925781-45.714844 88-95.589844h16c-.097656 58.996094-45.925781 107.8125-104.800781 111.628906zm104.800781-159.628906h-16v-16h16zm-184-248c0-13.257812 10.746094-24 24-24s24 10.742188 24 24v88c0 13.253906-10.746094 24-24 24s-24-10.746094-24-24zm-133.234375 144.132812c4.121094-47.535156 29.585937-90.632812 69.234375-117.175781v93.042969h16v-102.457031c10.171875-5.304688 20.90625-9.460938 32-12.382813v82.839844c0 22.089844 17.90625 40 40 40 22.089844 0 40-17.910156 40-40v-82.839844c11.09375 2.921875 21.828125 7.078125 32 12.382813v102.457031h16v-93.074219c6.558594 4.378907 12.777344 9.253907 18.597656 14.578125 29.144532 26.652344 47.214844 63.277344 50.632813 102.621094l2.046875 23.875h-318.558594zm-34.765625 55.867188c0-8.839844 7.164062-16 16-16h352c8.835938 0 16 7.160156 16 16 0 8.835938-7.164062 16-16 16h-352c-8.835938 0-16-7.164062-16-16zm48 32v16h-16v-16zm0 0"/></svg>