<?xml version="1.0" encoding="iso-8859-1"?>
<!-- Generator: Adobe Illustrator 19.0.0, SVG Export Plug-In . SVG Version: 6.00 Build 0)  -->
<svg version="1.1" id="Layer_1" xmlns="http://www.w3.org/2000/svg" xmlns:xlink="http://www.w3.org/1999/xlink" x="0px" y="0px"
	 viewBox="0 0 512 512" style="enable-background:new 0 0 512 512;" xml:space="preserve">
<g>
	<g>
		<path d="M361.412,105.412V0h-60.235v105.412h-90.353V0h-60.235v105.412l-45.177,135.529L135.529,512h90.353L256,391.529
			L286.118,512h90.353l30.118-271.059L361.412,105.412z M180.706,135.531c-8.315,0-15.059-6.743-15.059-15.059
			s6.743-15.059,15.059-15.059s15.059,6.743,15.059,15.059S189.021,135.531,180.706,135.531z M331.294,135.531
			c-8.315,0-15.059-6.743-15.059-15.059s6.743-15.059,15.059-15.059s15.059,6.743,15.059,15.059S339.61,135.531,331.294,135.531z"/>
	</g>
</g>
<g>
</g>
<g>
</g>
<g>
</g>
<g>
</g>
<g>
</g>
<g>
</g>
<g>
</g>
<g>
</g>
<g>
</g>
<g>
</g>
<g>
</g>
<g>
</g>
<g>
</g>
<g>
</g>
<g>
</g>
</svg>
